Coordinates
version=1
nRows=13
nColumns=40
inDegrees=yes

Units are S.I. units (second, meters, Newtons, ...)
If the header above contains a line with 'inDegrees', this indicates whether rotational values are in degrees (yes) or radians (no).

endheader
time	pelvis_tilt	pelvis_list	pelvis_rotation	pelvis_tx	pelvis_ty	pelvis_tz	hip_flexion_r	hip_adduction_r	hip_rotation_r	knee_angle_r	knee_angle_r_beta	ankle_angle_r	subtalar_angle_r	mtp_angle_r	hip_flexion_l	hip_adduction_l	hip_rotation_l	knee_angle_l	knee_angle_l_beta	ankle_angle_l	subtalar_angle_l	mtp_angle_l	lumbar_extension	lumbar_bending	lumbar_rotation	arm_flex_r	arm_add_r	arm_rot_r	elbow_flex_r	pro_sup_r	wrist_flex_r	wrist_dev_r	arm_flex_l	arm_add_l	arm_rot_l	elbow_flex_l	pro_sup_l	wrist_flex_l	wrist_dev_l
      8.11700000	      1.57789537	     11.61799944	      3.15430442	      0.07260689	      1.32007415	      0.00568309	     39.55809559	    -21.72461451	     -2.92701263	     52.55577065	      0.91727124	     -0.34284547	    -20.06320136	      0.00000000	     46.17621685	     -0.62938125	     -5.90627333	    100.05921683	      1.74636278	      0.70239122	     -8.55643931	      0.00000000	    -57.68186035	      2.24496947	     -9.70834065	     45.05883981	      4.12967586	    -17.76866827	     49.89854315	     47.86505858	      0.00000000	      0.00000000	     51.46021108	     19.58631905	     -8.99538243	     32.60867542	      7.62859989	      0.00000000	      0.00000000
      8.13300000	      0.88318008	     12.21881459	      4.61042276	      0.07218008	      1.31900956	      0.00442551	     36.14191244	    -22.40628439	     -5.31740017	     48.39513494	      0.84465445	     -3.31092003	    -20.61626097	      0.00000000	     50.18227799	      0.33292330	     -5.26512460	    103.49799159	      1.80638072	      2.07827771	     -7.93628250	      0.00000000	    -57.09229825	      2.59739445	    -10.83730053	     44.76597828	      4.07252459	    -18.13753545	     50.06845040	     47.65542157	      0.00000000	      0.00000000	     51.52254204	     19.86340197	     -8.99452702	     32.42097394	      7.57824068	      0.00000000	      0.00000000
      8.15000000	      0.30794235	     12.71638704	      5.64647856	      0.07187013	      1.31793837	      0.00362611	     33.14807703	    -22.77870787	     -7.46464384	     45.17510695	      0.78845436	     -5.87977154	    -20.72461801	      0.00000000	     53.84883313	      1.00934403	     -5.01479182	    106.03553999	      1.85066930	      3.62026796	     -7.16303178	      0.00000000	    -56.62913882	      2.76611609	    -11.71700776	     44.54461201	      4.07758121	    -18.51427482	     50.17746987	     47.48644790	      0.00000000	      0.00000000	     51.58474633	     20.09541051	     -9.01254104	     32.24759563	      7.59013708	      0.00000000	      0.00000000
      8.16700000	     -0.13231322	     13.20509218	      6.26393645	      0.07158275	      1.31708579	      0.00339123	     30.66291215	    -22.99588612	     -9.12934287	     43.09756396	      0.75219439	     -7.64105046	    -20.46523787	      0.00000000	     57.17472319	      1.38959577	     -5.24190471	    107.61497551	      1.87823565	      5.09234657	     -6.47692809	      0.00000000	    -56.33023724	      2.71020373	    -12.40805647	     44.42537892	      4.14336095	    -18.92803751	     50.23967245	     47.37346627	      0.00000000	      0.00000000	     51.69803693	     20.28592803	     -8.96955276	     32.01550434	      7.76068444	      0.00000000	      0.00000000
      8.18300000	     -0.35777225	     13.49693402	      6.75850301	      0.07143589	      1.31658161	      0.00336432	     28.31756665	    -23.05435760	    -10.92186917	     42.03912309	      0.73372111	     -8.50611162	    -20.18134549	      0.00000000	     60.10052987	      1.66301057	     -5.41548012	    108.30750602	      1.89032258	      6.57975796	     -5.52539937	      0.00000000	    -56.25261318	      2.79892767	    -12.93010204	     44.39362381	      4.22030085	    -19.30337794	     50.25723902	     47.33122320	      0.00000000	      0.00000000	     51.82191629	     20.44523745	     -8.92965075	     31.83837694	      7.89395458	      0.00000000	      0.00000000
      8.20000000	     -0.38685942	     13.69210855	      6.55283620	      0.07138496	      1.31625489	      0.00400384	     26.74367574	    -22.84941294	    -12.00815247	     42.25738823	      0.73753056	     -8.83939692	    -19.74173334	      0.00000000	     62.25605725	      1.56812301	     -5.91996130	    108.04732504	      1.88578157	      8.25913101	     -5.26589880	      0.00000000	    -56.35506298	      2.50106760	    -13.05029205	     44.46226869	      4.34542139	    -19.60227579	     50.21878103	     47.31782171	      0.00000000	      0.00000000	     51.91959240	     20.63833264	     -9.05527623	     31.74095093	      8.08439150	      0.00000000	      0.00000000
      8.21700000	     -0.04238154	     13.63209968	      5.77217514	      0.07146752	      1.31644504	      0.00527791	     25.54167890	    -22.37558119	    -12.99765206	     43.74062727	      0.76341796	     -8.05037087	    -19.43326514	      0.00000000	     63.43434109	      1.23603017	     -6.34956120	    106.73736794	      1.86291851	     10.01553968	     -5.13811442	      0.00000000	    -56.78505144	      2.03826504	    -12.80361635	     44.60156844	      4.37737210	    -19.67661922	     50.16057258	     47.34502961	      0.00000000	      0.00000000	     51.91901457	     20.81490148	     -9.57657741	     31.91358711	      8.65019461	      0.00000000	      0.00000000
      8.23300000	      0.59407024	     13.42734359	      4.57542826	      0.07161638	      1.31712704	      0.00694862	     24.77343582	    -21.80109130	    -13.56362903	     46.44756180	      0.81066288	     -6.77734161	    -19.25010279	      0.00000000	     63.71270802	      0.76234136	     -6.74744396	    104.48506125	      1.82360834	     11.85898983	     -5.30106406	      0.00000000	    -57.48076670	      1.44330958	    -12.29684006	     44.83406588	      4.43282995	    -19.66284288	     50.04727478	     47.43224731	      0.00000000	      0.00000000	     51.91736877	     21.00129398	    -10.15316288	     32.18219393	      8.73076280	      0.00000000	      0.00000000
      8.25000000	      1.26675608	     13.10109302	      3.45234210	      0.07175007	      1.31809942	      0.00826336	     24.68595228	    -21.27664254	    -13.68570732	     50.25043945	      0.87703562	     -5.44221771	    -19.27982518	      0.00000000	     63.14615999	      0.34376999	     -6.92702673	    101.40574511	      1.76986413	     13.41120956	     -5.52765522	      0.00000000	    -58.19939005	      0.97234585	    -11.68425952	     45.10219893	      4.49404552	    -19.64698357	     49.95557423	     47.52973433	      0.00000000	      0.00000000	     51.95192980	     21.17724093	    -10.64212523	     32.43959375	      8.57831622	      0.00000000	      0.00000000
      8.26700000	      1.92190634	     12.76373144	      2.50405184	      0.07204811	      1.31929810	      0.00916318	     25.51050643	    -20.86082847	    -13.11253520	     55.37009154	      0.96639040	     -4.49249924	    -19.30588339	      0.00000000	     61.59605187	      0.04901515	     -6.86257342	     97.28506618	      1.69794472	     14.60103445	     -5.38083145	      0.00000000	    -58.89482563	      0.56675145	    -11.00201607	     45.34301904	      4.55250579	    -19.75533763	     49.89622422	     47.65643031	      0.00000000	      0.00000000	     52.02858861	     21.38574483	    -11.15791498	     32.62075947	      8.46636976	      0.00000000	      0.00000000
      8.28300000	      2.54556247	     12.18107921	      1.76431115	      0.07234441	      1.32055351	      0.00957603	     26.95900454	    -20.33633914	    -12.42901301	     61.41433374	      1.07188233	     -3.84078511	    -19.55795854	      0.00000000	     59.32988831	     -0.17853200	     -6.44943644	     92.32404009	      1.61135848	     15.39599888	     -5.30651073	      0.00000000	    -59.52545492	      0.45181395	    -10.17223667	     45.60100322	      4.60839577	    -19.86193066	     49.84221072	     47.77535710	      0.00000000	      0.00000000	     52.10608033	     21.54577909	    -11.53828527	     32.81697162	      8.25146265	      0.00000000	      0.00000000
      8.30000000	      3.09499670	     11.55605778	      0.80440947	      0.07245272	      1.32171864	      0.01019788	     28.96330742	    -19.71000412	    -11.26090581	     67.57730657	      1.17944650	     -3.50417979	    -19.46194052	      0.00000000	     56.55564368	     -0.67135980	     -6.26331596	     86.98492185	      1.51817329	     15.45810663	     -5.25939312	      0.00000000	    -60.03388805	      0.18311615	     -9.25024549	     45.84206545	      4.67316960	    -19.81800527	     49.78420802	     47.96826431	      0.00000000	      0.00000000	     52.17244228	     21.57772818	    -11.82606993	     32.99656468	      8.06996419	      0.00000000	      0.00000000
      8.31700000	      3.61361341	     10.61929511	     -0.32796010	      0.07230105	      1.32278209	      0.01082469	     31.36230826	    -18.78681917	     -9.89586703	     73.76590280	      1.28745788	     -3.30034560	    -18.72399732	      0.00000000	     53.27583358	     -1.52521279	     -6.19793328	     81.28216948	      1.41864148	     14.64351615	     -5.47761870	      0.00000000	    -60.37382453	      0.04305940	     -8.12406246	     46.12183294	      4.74483231	    -19.45530814	     49.62363020	     48.18849445	      0.00000000	      0.00000000	     52.14070748	     21.37087717	    -12.03130338	     33.19205129	      8.38395719	      0.00000000	      0.00000000
